HIERARCHY
ROOT joint_Root
{
	OFFSET 0.0 0.0 0.0
	CHANNELS 6 Xposition Yposition Zposition Zrotation Xrotation Yrotation 
	JOINT Hips
	{
		OFFSET -17.1583 93.1646 452.98
		CHANNELS 6 Xposition Yposition Zposition Zrotation Xrotation Yrotation 
		JOINT Spine
		{
			OFFSET 15.7357 0.0 0.0
			CHANNELS 6 Xposition Yposition Zposition Zrotation Xrotation Yrotation 
			JOINT Chest
			{
				OFFSET 8.98455 -0.406207 0.0
				CHANNELS 6 Xposition Yposition Zposition Zrotation Xrotation Yrotation 
				JOINT Neck
				{
					OFFSET 16.3773 0.0 0.0
					CHANNELS 6 Xposition Yposition Zposition Zrotation Xrotation Yrotation 
					JOINT Head
					{
						OFFSET 6.45672 0.0 0.0
						CHANNELS 6 Xposition Yposition Zposition Zrotation Xrotation Yrotation 
						End Site
						{
							OFFSET 0.0 0.0 0.0
						}
					}
				}
				JOINT Shoulder_L
				{
					OFFSET 12.9942 -0.242716 4.98039
					CHANNELS 6 Xposition Yposition Zposition Zrotation Xrotation Yrotation 
					JOINT UpperArm_L
					{
						OFFSET 5.34809 0.0 0.0
						CHANNELS 6 Xposition Yposition Zposition Zrotation Xrotation Yrotation 
						JOINT LowerArm_L
						{
							OFFSET 24.3286 1.87007e-05 0.0
							CHANNELS 6 Xposition Yposition Zposition Zrotation Xrotation Yrotation 
							JOINT Hand_L
							{
								OFFSET 22.2916 0.0 0.0
								CHANNELS 6 Xposition Yposition Zposition Zrotation Xrotation Yrotation 
								End Site
								{
									OFFSET 0.0 0.0 0.0
								}
							}
						}
					}
				}
				JOINT Shoulder_R
				{
					OFFSET 12.9945 -0.242716 -4.98039
					CHANNELS 6 Xposition Yposition Zposition Zrotation Xrotation Yrotation 
					JOINT UpperArm_R
					{
						OFFSET -5.34813 0.0 0.0
						CHANNELS 6 Xposition Yposition Zposition Zrotation Xrotation Yrotation 
						JOINT LowerArm_R
						{
							OFFSET -24.3289 0.000322201 0.0
							CHANNELS 6 Xposition Yposition Zposition Zrotation Xrotation Yrotation 
							JOINT Hand_R
							{
								OFFSET -22.2915 -0.000108084 0.0
								CHANNELS 6 Xposition Yposition Zposition Zrotation Xrotation Yrotation 
								End Site
								{
									OFFSET 0.0 0.0 0.0
								}
							}
						}
					}
				}
			}
		}
		JOINT UpperLeg_L
		{
			OFFSET -2.19248 -6.46944 0.0
			CHANNELS 6 Xposition Yposition Zposition Zrotation Xrotation Yrotation 
			JOINT LowerLeg_L
			{
				OFFSET 39.0811 0.0 -1.23785e-05
				CHANNELS 6 Xposition Yposition Zposition Zrotation Xrotation Yrotation 
				JOINT Foot_L
				{
					OFFSET 40.9854 0.0 -1.26872e-05
					CHANNELS 6 Xposition Yposition Zposition Zrotation Xrotation Yrotation 
					JOINT Toes_L
					{
						OFFSET 11.7543 0.0 0.0
						CHANNELS 6 Xposition Yposition Zposition Zrotation Xrotation Yrotation 
						End Site
						{
							OFFSET 0.0 0.0 0.0
						}
					}
				}
			}
		}
		JOINT UpperLeg_R
		{
			OFFSET -2.19251 6.46944 0.0
			CHANNELS 6 Xposition Yposition Zposition Zrotation Xrotation Yrotation 
			JOINT LowerLeg_R
			{
				OFFSET -39.0811 -0.00228153 -0.0401928
				CHANNELS 6 Xposition Yposition Zposition Zrotation Xrotation Yrotation 
				JOINT Foot_R
				{
					OFFSET -40.9854 0.0 0.0
					CHANNELS 6 Xposition Yposition Zposition Zrotation Xrotation Yrotation 
					JOINT Toes_R
					{
						OFFSET -11.7543 0.0 0.0
						CHANNELS 6 Xposition Yposition Zposition Zrotation Xrotation Yrotation 
						End Site
						{
							OFFSET 0.0 0.0 0.0
						}
					}
				}
			}
		}
	}
}
MOTION
Frames:	9
Frame Time:	0.0333333
0.000000 0.000000 0.000000 0.000000 0.000000 -0.000000 0.291200 93.044200 -0.445265 87.539400 1.438000 3.764330 15.735700 0.000005 -0.000001 99.301100 85.559600 -98.700300 8.984550 -0.406207 -0.000000 0.991409 1.399260 1.188500 16.377300 -0.000001 -0.000001 3.574830 1.674410 2.822670 6.456720 -0.000001 -0.000000 -12.198700 -0.180233 6.230060 12.994200 -0.242716 4.980390 -93.258200 9.366230 -70.720300 5.348090 -0.000007 -0.000001 -67.957900 25.611500 -5.745270 24.328600 0.000019 0.000005 12.576800 29.014800 -24.700500 22.291600 -0.000001 0.000005 -7.062370 5.210100 2.425260 12.994500 -0.242716 -4.980390 88.138400 5.805670 -72.187300 -5.348130 -0.000001 -0.000004 -69.414300 33.875000 -7.818730 -24.328900 0.000322 -0.000009 0.401307 1.274350 -17.524400 -22.291500 -0.000108 -0.000004 -0.319517 5.289590 0.362580 -2.192480 -6.469440 -0.000000 -173.061000 -9.864510 0.137156 39.081100 -0.000007 -0.000012 0.021191 -0.064903 18.082600 40.985400 -0.000006 -0.000013 0.817088 15.773800 -69.270600 11.754300 -0.000000 0.000003 -0.001164 0.185345 -9.058130 -2.192510 6.469440 -0.000001 176.401000 9.893880 -176.354000 -39.081100 -0.002282 -0.040193 -0.002625 0.027937 12.043500 -40.985400 0.000008 0.000006 -7.485910 9.359560 -65.954400 -11.754300 -0.000006 -0.000006 -0.010307 0.273584 -5.457750
0.000000 0.000000 0.000000 0.000000 0.000000 -0.000000 0.325276 93.118300 -0.490689 87.521700 1.317690 2.930880 15.735700 0.000005 -0.000001 101.909000 85.788400 -101.159000 8.984550 -0.406207 -0.000000 0.465729 1.689870 1.492770 16.377300 -0.000001 -0.000001 2.601280 1.555940 3.548420 6.456720 -0.000001 -0.000000 -13.056800 -0.559235 7.647520 12.994200 -0.242716 4.980390 -93.398300 9.496290 -70.205100 5.348090 -0.000007 -0.000001 -66.911100 20.794000 -6.066610 24.328600 0.000019 0.000005 13.549200 31.621400 -24.685600 22.291600 -0.000001 0.000005 -11.995000 5.360460 -1.813620 12.994500 -0.242716 -4.980390 88.171500 5.717140 -72.230600 -5.348130 -0.000001 -0.000004 -69.664400 31.788000 -6.965530 -24.328900 0.000322 -0.000009 0.172293 0.559207 -17.208800 -22.291500 -0.000108 -0.000004 0.080859 5.302370 0.005924 -2.192480 -6.469440 -0.000000 -173.187000 -10.178600 -0.435665 39.081100 -0.000007 -0.000012 0.021047 -0.066608 17.536100 40.985400 -0.000006 -0.000013 0.774325 15.896700 -69.114000 11.754300 -0.000000 0.000003 -0.000977 0.182713 -9.165090 -2.192510 6.469440 -0.000001 176.428000 10.133700 -176.825000 -39.081100 -0.002282 -0.040193 -0.003845 0.036443 11.148600 -40.985400 0.000008 0.000006 -8.202290 9.692380 -65.184200 -11.754300 -0.000006 -0.000006 -0.009908 0.270619 -5.579060
0.000000 0.000000 0.000000 0.000000 0.000000 -0.000000 0.333555 93.191600 -0.504668 87.612000 1.309870 2.106970 15.735700 0.000005 -0.000001 104.302000 86.107500 -103.329000 8.984550 -0.406207 -0.000000 -0.236955 1.854800 1.948470 16.377300 -0.000001 -0.000001 1.859120 1.470390 4.011250 6.456720 -0.000001 -0.000000 -13.810200 -1.154890 9.294770 12.994200 -0.242716 4.980390 -93.292900 8.996130 -69.798600 5.348090 -0.000007 -0.000001 -65.289500 13.391600 -7.582950 24.328600 0.000019 0.000005 10.009500 30.409900 -19.217500 22.291600 -0.000001 0.000005 -18.581600 5.458250 -4.937540 12.994500 -0.242716 -4.980390 88.222400 5.561100 -72.242600 -5.348130 -0.000001 -0.000004 -69.884200 28.937100 -6.114020 -24.328900 0.000322 -0.000009 -0.162009 -0.573927 -15.702100 -22.291500 -0.000108 -0.000004 0.304055 5.324330 -0.620205 -2.192480 -6.469440 -0.000000 -173.376000 -10.691800 -0.905268 39.081100 -0.000007 -0.000012 0.019138 -0.063135 16.863600 40.985400 -0.000006 -0.000013 0.737290 16.282100 -69.048600 11.754300 -0.000000 0.000003 -0.001152 0.185165 -9.065440 -2.192510 6.469440 -0.000001 176.343000 10.811700 -177.300000 -39.081100 -0.002282 -0.040193 -0.003122 0.035249 10.385800 -40.985400 0.000008 0.000006 -8.742610 10.315500 -64.583100 -11.754300 -0.000006 -0.000006 -0.010446 0.274611 -5.415750
0.000000 0.000000 0.000000 0.000000 0.000000 -0.000000 0.313128 93.245800 -0.481278 87.680500 1.361290 1.206550 15.735700 0.000005 -0.000001 105.073000 86.514500 -103.705000 8.984550 -0.406207 -0.000000 -1.053750 1.707180 2.752380 16.377300 -0.000001 -0.000001 0.943055 1.430430 4.327560 6.456720 -0.000001 -0.000000 -14.143700 -1.332720 10.456700 12.994200 -0.242716 4.980390 -93.074900 8.307770 -69.605800 5.348090 -0.000007 -0.000001 -62.395200 3.369570 -9.655520 24.328600 0.000019 0.000005 5.857160 29.959800 -11.610200 22.291600 -0.000001 0.000005 -24.478300 5.436780 -4.149240 12.994500 -0.242716 -4.980390 88.312700 5.316450 -72.363600 -5.348130 -0.000001 -0.000004 -69.604500 26.141200 -5.544250 -24.328900 0.000322 -0.000009 -0.311637 -1.276760 -13.670500 -22.291500 -0.000108 -0.000004 0.607089 5.324900 -0.637855 -2.192480 -6.469440 -0.000000 -173.538000 -11.223200 -1.518170 39.081100 -0.000007 -0.000012 0.016644 -0.056903 16.304300 40.985400 -0.000006 -0.000013 0.711413 16.787400 -68.922200 11.754300 -0.000000 0.000003 -0.000916 0.181835 -9.200770 -2.192510 6.469440 -0.000001 176.405000 11.126300 -177.856000 -39.081100 -0.002282 -0.040193 -0.001335 0.027366 9.693950 -40.985400 0.000008 0.000006 -8.998820 10.515800 -64.154400 -11.754300 -0.000006 -0.000006 -0.010191 0.272727 -5.492830
0.000000 0.000000 0.000000 0.000000 0.000000 -0.000000 0.301855 93.308900 -0.416760 87.816800 1.288770 0.344720 15.735700 0.000005 -0.000001 103.894000 86.918700 -102.004000 8.984550 -0.406207 -0.000000 -1.802790 1.321740 3.798590 16.377300 -0.000001 -0.000001 -0.176112 1.555160 4.516180 6.456720 -0.000001 -0.000000 -14.318200 -1.027480 11.240800 12.994200 -0.242716 4.980390 -92.751500 7.385510 -69.500400 5.348090 -0.000007 -0.000001 -57.936500 -8.257480 -11.391000 24.328600 0.000019 0.000005 2.902430 34.959500 -5.063350 22.291600 -0.000001 0.000005 -25.403800 5.413620 -3.389220 12.994500 -0.242716 -4.980390 88.388300 5.079200 -72.369400 -5.348130 -0.000001 -0.000004 -68.608600 23.806900 -5.280860 -24.328900 0.000322 -0.000009 -0.076358 -0.355780 -11.887500 -22.291500 -0.000108 -0.000004 1.023500 5.303770 -0.036141 -2.192480 -6.469440 -0.000000 -173.750000 -11.965800 -1.889010 39.081100 -0.000007 -0.000012 0.014736 -0.053125 15.503800 40.985400 -0.000006 -0.000013 0.664184 17.400400 -68.843100 11.754300 -0.000000 0.000003 -0.000936 0.182126 -9.188960 -2.192510 6.469440 -0.000001 176.417000 11.050000 -178.300000 -39.081100 -0.002282 -0.040193 0.000535 0.017964 8.876100 -40.985400 0.000008 0.000006 -9.300380 10.455300 -63.765800 -11.754300 -0.000006 -0.000006 -0.010252 0.273178 -5.474390
0.000000 0.000000 0.000000 0.000000 0.000000 -0.000000 0.292710 93.337700 -0.288299 87.868000 0.932339 -0.403264 15.735700 0.000005 -0.000001 100.419000 87.232100 -97.853500 8.984550 -0.406207 -0.000000 -2.333770 0.774848 5.146290 16.377300 -0.000001 -0.000001 -1.363840 1.979490 4.645760 6.456720 -0.000001 -0.000000 -14.621300 -0.194695 11.528200 12.994200 -0.242716 4.980390 -92.390600 6.335890 -69.278200 5.348090 -0.000007 -0.000001 -51.518900 -18.900100 -11.900800 24.328600 0.000019 0.000005 0.463307 39.772100 -0.725063 22.291600 -0.000001 0.000005 -21.560700 5.365660 -1.920890 12.994500 -0.242716 -4.980390 88.481700 4.764320 -72.300400 -5.348130 -0.000001 -0.000004 -67.221300 21.240300 -5.322610 -24.328900 0.000322 -0.000009 0.209058 1.141160 -10.444600 -22.291500 -0.000108 -0.000004 1.788570 5.285740 0.467440 -2.192480 -6.469440 -0.000000 -173.865000 -12.939100 -2.223960 39.081100 -0.000007 -0.000012 0.013501 -0.050389 15.000200 40.985400 -0.000006 -0.000013 0.655780 17.938400 -68.808200 11.754300 -0.000000 0.000003 -0.000796 0.180087 -9.271800 -2.192510 6.469440 -0.000001 176.506000 10.677000 -178.781000 -39.081100 -0.002282 -0.040193 0.001945 0.009493 8.370110 -40.985400 0.000008 0.000006 -9.423560 10.373600 -63.587700 -11.754300 -0.000006 -0.000006 -0.010475 0.274820 -5.407210
0.000000 0.000000 0.000000 0.000000 0.000000 -0.000000 0.315468 93.373700 -0.128094 87.916300 0.193066 -1.047220 15.735700 0.000005 -0.000001 98.558000 87.395500 -95.271700 8.984550 -0.406207 -0.000000 -2.620240 0.477294 6.583440 16.377300 -0.000001 -0.000001 -2.507110 2.514700 4.727650 6.456720 -0.000001 -0.000000 -15.089800 0.545644 11.693500 12.994200 -0.242716 4.980390 -91.891300 4.889630 -68.822000 5.348090 -0.000007 -0.000001 -44.046100 -27.963700 -11.385000 24.328600 0.000019 0.000005 0.000205 39.245300 -0.000005 22.291600 -0.000001 0.000005 -15.612900 5.254770 1.226260 12.994500 -0.242716 -4.980390 88.552000 4.509260 -72.176900 -5.348130 -0.000001 -0.000004 -65.646300 17.800100 -5.271960 -24.328900 0.000322 -0.000009 0.326554 1.950150 -9.538230 -22.291500 -0.000108 -0.000004 2.621680 5.275520 0.748059 -2.192480 -6.469440 -0.000000 -174.005000 -13.954300 -2.267480 39.081100 -0.000007 -0.000012 0.014341 -0.056144 14.329600 40.985400 -0.000006 -0.000013 0.607104 18.191100 -68.825600 11.754300 -0.000000 0.000003 -0.001047 0.183698 -9.125040 -2.192510 6.469440 -0.000001 176.498000 10.114700 -179.042000 -39.081100 -0.002282 -0.040193 0.003012 0.002485 7.579740 -40.985400 0.000008 0.000006 -9.744570 10.533400 -63.128700 -11.754300 -0.000006 -0.000006 -0.010048 0.271663 -5.536350
0.000000 0.000000 0.000000 0.000000 0.000000 -0.000000 0.371666 93.425900 0.009796 87.864800 -0.668175 -1.638510 15.735700 0.000005 -0.000001 100.523000 87.488400 -96.497800 8.984550 -0.406207 -0.000000 -2.833820 0.545117 8.065280 16.377300 -0.000001 -0.000001 -3.353590 2.964960 4.915610 6.456720 -0.000001 -0.000000 -15.608300 1.018910 11.818000 12.994200 -0.242716 4.980390 -91.329400 3.321020 -68.167000 5.348090 -0.000007 -0.000001 -35.951300 -34.854800 -10.703400 24.328600 0.000019 0.000005 -0.000563 33.057400 -0.000004 22.291600 -0.000001 0.000005 -9.408750 5.119430 4.584110 12.994500 -0.242716 -4.980390 88.628700 4.231260 -72.024100 -5.348130 -0.000001 -0.000004 -64.135100 13.855400 -4.708150 -24.328900 0.000322 -0.000009 0.278337 1.704740 -9.308060 -22.291500 -0.000108 -0.000004 3.594550 5.270420 0.887252 -2.192480 -6.469440 -0.000000 -174.113000 -14.771000 -2.235330 39.081100 -0.000007 -0.000012 0.017588 -0.072751 13.591000 40.985400 -0.000006 -0.000013 0.521899 18.057000 -68.767100 11.754300 -0.000000 0.000003 -0.000969 0.182595 -9.169880 -2.192510 6.469440 -0.000001 176.477000 9.868730 -178.905000 -39.081100 -0.002282 -0.040193 0.004719 -0.013018 6.021420 -40.985400 0.000008 0.000006 -10.636900 11.035100 -61.942000 -11.754300 -0.000006 -0.000006 -0.009728 0.269265 -5.634440
0.000000 0.000000 0.000000 0.000000 0.000000 -0.000000 0.462183 93.497100 0.162789 87.790100 -1.479440 -2.145080 15.735700 0.000005 -0.000001 107.790000 87.542800 -103.083000 8.984550 -0.406207 -0.000000 -3.112640 1.054610 9.444360 16.377300 -0.000001 -0.000001 -3.762220 3.377330 5.216240 6.456720 -0.000001 -0.000000 -16.061700 1.176510 12.088100 12.994200 -0.242716 4.980390 -90.783100 1.903080 -67.625400 5.348090 -0.000007 -0.000001 -27.832000 -39.988100 -11.346200 24.328600 0.000019 0.000005 -0.000002 25.510000 -0.000002 22.291600 -0.000001 0.000005 -2.811290 4.974630 7.780800 12.994500 -0.242716 -4.980390 88.740400 3.847120 -71.855000 -5.348130 -0.000001 -0.000004 -62.770200 10.545400 -3.484600 -24.328900 0.000322 -0.000009 0.120855 0.722100 -9.586520 -22.291500 -0.000108 -0.000004 4.930360 5.264730 1.039360 -2.192480 -6.469440 -0.000000 -174.186000 -15.764200 -1.953430 39.081100 -0.000007 -0.000012 0.020014 -0.089934 12.546400 40.985400 -0.000006 -0.000013 0.447752 18.204200 -68.515900 11.754300 -0.000000 0.000003 -0.000599 0.177155 -9.390910 -2.192510 6.469440 -0.000001 176.449000 10.083200 -178.755000 -39.081100 -0.002282 -0.040193 0.005726 -0.029375 4.628320 -40.985400 0.000008 0.000006 -11.109300 11.936600 -60.734800 -11.754300 -0.000006 -0.000006 -0.009695 0.269011 -5.644810
